<svg width="100" height="89" viewBox="0 0 100 89" fill="none" xmlns="http://www.w3.org/2000/svg">
<path d="M99.9738 44.4044C99.9738 47.5327 97.3694 49.9832 94.4178 49.9832H88.8617L88.9833 77.825C89.018 83.9947 84.0349 89 77.8712 89H22.2415C16.1125 89 11.1294 84.0121 11.1294 77.8772V49.9832H5.55603C2.43076 49.9832 0 47.5501 0 44.4044C0 42.8403 0.520878 41.4499 1.73626 40.2334L46.2539 1.39035C47.4693 0.173794 48.8583 0 50.0737 0C51.2891 0 52.6781 0.347588 53.7198 1.21656L98.0639 40.2334C99.4529 41.4499 100.147 42.8403 99.9738 44.4044Z" fill="#2563EB"/>
<path d="M50.0043 8.51138C52.6313 8.51138 54.7537 10.6401 54.7537 13.2749V18.5891C54.9912 18.6189 55.2138 18.6486 55.4513 18.6933C55.5106 18.7082 55.5552 18.7082 55.6145 18.7231L62.7387 20.033C65.3212 20.5094 67.028 22.9953 66.5531 25.5706C66.0781 28.1458 63.5995 29.8726 61.0319 29.3962L53.9819 28.1012C49.3364 27.4164 45.24 27.8779 42.3606 29.0241C39.4813 30.1703 38.3236 31.7482 38.0564 33.207C37.7596 34.7998 37.9822 35.6929 38.2345 36.2437C38.5017 36.8243 39.0509 37.4792 40.1343 38.2087C42.5536 39.8014 46.2641 40.8434 51.0729 42.1236L51.5033 42.2427C55.7481 43.374 60.9428 44.7435 64.8017 47.2741C66.9093 48.6585 68.8981 50.5341 70.13 53.154C71.3916 55.8186 71.6587 58.7958 71.0799 61.9665C70.0558 67.6231 66.1672 71.4041 61.3435 73.3839C59.3102 74.2175 57.0987 74.7534 54.7537 75.0214V79.9932C54.7537 82.628 52.6313 84.7567 50.0043 84.7567C47.3772 84.7567 45.2548 82.628 45.2548 79.9932V74.7981C45.1954 74.7832 45.1212 74.7832 45.0619 74.7683H45.0322C41.4107 74.2026 35.4591 72.6396 31.4518 70.8533C29.0622 69.7815 27.9787 66.9681 29.0474 64.5715C30.116 62.1749 32.9211 61.0882 35.3107 62.16C38.4127 63.5444 43.5183 64.9139 46.4719 65.3753C51.2065 66.075 55.1099 65.673 57.7518 64.5864C60.2601 63.5593 61.4029 62.0707 61.7294 60.2844C62.0114 58.7065 61.7888 57.7984 61.5365 57.2477C61.2545 56.6522 60.7053 55.9972 59.607 55.2678C57.1729 53.675 53.4476 52.633 48.6239 51.3529L48.2084 51.2487C43.9784 50.0876 38.7837 48.7032 34.9248 46.1726C32.8172 44.7882 30.8432 42.8977 29.6114 40.2778C28.3646 37.6132 28.1123 34.636 28.706 31.4654C29.7746 25.779 34.0194 22.0873 38.8431 20.167C40.8171 19.3781 42.984 18.8422 45.2548 18.5296V13.2749C45.2548 10.6401 47.3772 8.51138 50.0043 8.51138Z" fill="white"/>
</svg>
